<?xml version="1.0" encoding="utf-8"?>
<!-- Svg Vector Icons : http://www.onlinewebfonts.com/icon -->
<!DOCTYPE svg PUBLIC "-//W3C//DTD SVG 1.1//EN" "http://www.w3.org/Graphics/SVG/1.1/DTD/svg11.dtd">
<svg width="28px" height="28px" version="1.1" xmlns="http://www.w3.org/2000/svg" xmlns:xlink="http://www.w3.org/1999/xlink" x="0px" y="0px" viewBox="0 0 256 256" enable-background="new 0 0 256 256" xml:space="preserve">
<metadata> Svg Vector Icons : http://www.onlinewebfonts.com/icon </metadata>
<g><g><path fill="#FFFFFF" d="M97.4,53.3c2.5,2.2,3.8,5,4,8.3c0.3,5.5-2.7,11.5-4.8,13.8c-0.9,1-0.8,2.5,0.1,3.4c0.5,0.4,1.1,0.6,1.6,0.6c0.6,0,1.3-0.3,1.8-0.8c2.6-2.8,6.5-9.9,6.1-17.3c-0.2-4.6-2.2-8.7-5.7-11.7c-3.4-3-2.4-10.3,2.7-20c0.1-0.2,0.2-0.3,0.2-0.5c0.8-1.7-0.1-2.9-0.8-3.3c-0.9-0.6-2.4-0.6-3.3,0.6c-0.2,0.2-0.3,0.5-0.4,0.7c0,0,0,0.1,0,0.1C90.9,42.9,93.6,50,97.4,53.3z"/><path fill="#FFFFFF" d="M118.7,54.5c2.3,2,3.6,4.6,3.7,7.7c0.3,6.1-3.5,12.4-5.4,14.4c-0.9,1-0.8,2.5,0.1,3.4c0.5,0.4,1.1,0.7,1.6,0.7c0.7,0,1.3-0.3,1.8-0.8c2.8-3,7.1-10.6,6.7-18c-0.2-4.4-2-8.1-5.4-11c-7.6-6.6,1.8-20.1,1.9-20.3c0.8-1.1,0.5-2.6-0.6-3.3c-1.1-0.8-2.6-0.5-3.3,0.6c-0.1,0.2-2.9,4.2-4.6,9.3C112.9,44.5,114.1,50.5,118.7,54.5z"/><path fill="#FFFFFF" d="M138.3,54.5c2.3,2,3.6,4.6,3.7,7.7c0.3,6.1-3.5,12.4-5.4,14.4c-0.9,1-0.8,2.5,0.1,3.4c0.5,0.4,1.1,0.7,1.6,0.7c0.7,0,1.3-0.3,1.8-0.8c2.8-3,7.1-10.6,6.7-18c-0.2-4.4-2-8.1-5.4-11c-7.5-6.6-0.2-17.1,0.1-17.6c0.8-1.1,0.5-2.6-0.6-3.3s-2.6-0.5-3.3,0.6c-0.1,0.1-2.5,3.6-3.7,8.1C132.2,45.1,133.7,50.5,138.3,54.5z"/><path fill="#FFFFFF" d="M130.3,128.5c-1.8-0.4-3.7-0.6-5.6-0.6c-5.8,0-11.6,2.1-16.3,6c-4.7,3.9-8.1,9.4-9.5,15.5c-1.6,7.1-0.6,14.4,3,20.5c3.6,6.2,9.3,10.4,16,12c1.8,0.4,3.7,0.6,5.6,0.6c5.8,0,11.6-2.1,16.3-6c4.7-3.9,8.1-9.4,9.5-15.5c1.6-7.1,0.6-14.4-3-20.5C142.8,134.3,137,130.1,130.3,128.5z M144.6,159.9c-2.4,10.3-11.3,17.7-21.1,17.7c-1.5,0-3-0.2-4.5-0.5c-3.1-0.7-5.9-2.1-8.2-4.1c4-2.6,11.1-8.2,13.4-17.3c2.6-10.1,8.5-12.3,9.6-12.4c1.3,0.2,2.5-0.7,2.7-2c0.2-1.3-0.7-2.6-2-2.7c-2.8-0.5-11.5,2.5-15,15.9c-2,8-8.9,13-12.1,14.9c-0.5-0.7-0.9-1.3-1.3-2c-2.9-5.1-3.8-11.1-2.5-17c2.4-10.3,11.3-17.7,21.1-17.7c1.5,0,3,0.2,4.5,0.5c5.4,1.3,10,4.7,13,9.7C145.1,148,146,154,144.6,159.9z"/><path fill="#FFFFFF" d="M205.1,140.1c4.9,0,8.9-4,8.9-8.9c0-4.9-4-8.9-8.9-8.9c-4.9,0-8.9,4-8.9,8.9C196.2,136.1,200.2,140.1,205.1,140.1z M205.1,127.2c2.2,0,4.1,1.8,4.1,4.1c0,2.2-1.8,4.1-4.1,4.1c-2.2,0-4.1-1.8-4.1-4.1C201,129,202.9,127.2,205.1,127.2z"/><path fill="#FFFFFF" d="M233,162.8c-6.2-4.3-14.8-7.8-25.5-10.6c2.7-0.5,5.7-1.5,8.7-3.3c5.6-3.3,9.4-7.7,11.1-12.6c1.9-5.5,1-11.5-2.5-17.5c-2.9-5-7.6-8.6-12.8-9.7c-4.5-1-8.9-0.2-12.5,2.3c-0.7,0.5-1.2,0.8-1.6,1.1c-1.5,1-1.8,1.2-4.3,3.9c0-0.7,0-1.5,0-2.2V114l-0.7-18.4c0.1-0.7,0-1.4-0.1-2.1v0c0,0,0-0.1,0-0.1c0,0,0,0,0-0.1c0,0,0,0,0-0.1c-1.1-4.9-8-7.5-21.8-9.7c-13-2-27.3-2.2-31.4-2.2c-2.2,0-4.3,0-5.9,0.1c-3.1,0.1-6.7,0.3-11,0.5c-12.8,0.5-30.4,0.6-45.1,2c-17.4,1.6-26.5,7-29.5,17.4c-0.3,1-0.4,1.9-0.3,2.8c-0.1,2.5-0.2,4.9-0.2,7.3c-0.2,5.2-0.4,10.5-0.4,15.7c-0.1,10.4,0.1,19.9,0.7,28.8c-23.1,8-36.5,19-37.8,31.3c-0.9,8.4,1.4,15.7,6.7,21.6c7.8,8.6,22,14.4,43.6,17.8c16.7,2.6,38.1,3.8,67.5,3.8c30.8,0,59.7-4.3,81.4-12.1c22.1-7.9,35-18.8,36.4-30.6C247,177.8,242.7,169.4,233,162.8z M194.4,122.4l1.4-1.4c3.5-3.7,3.5-3.7,4.7-4.5c0.4-0.3,1-0.6,1.7-1.2c2.4-1.7,5.5-2.2,8.7-1.5c4,0.9,7.5,3.6,9.7,7.4c7.6,13.1-2.3,20.8-6.9,23.6c-6.1,3.6-12.3,3.3-15.6,3.1c-0.7,0-1.3-0.1-1.7,0c-1.7,0-2.7,1.2-3.4,3.5l0,0c-0.6,1.8-0.9,4.3-1.2,7.5c-0.4,4.1-0.5,8.1-0.5,8.8c0,0.2,0,0.5,0,0.8c-0.1,2-0.3,6.2-3.5,10.8c-4.2,5.9-12.1,10.2-23.3,12.9c-14.6,3.5-47.1,4.7-69.6,2.6c-8.4-0.8-12.4-1.6-18.9-3c-1.8-0.4-3.9-0.8-6.2-1.3c-9.1-1.9-14.4-9-15.8-21.4c-1.4-12.4-2-26.1-1.8-41.8c0.1-5.2,0.2-10.5,0.4-15.6c0-0.6,0-2.4,0.1-3c4.6,2.3,12.7,3.9,25.8,3.9c10.1,0,21.7,0.9,34,0.3c6.1-0.3,12.5-0.6,18.6-0.9c35-1.3,47.3-1.6,57.4-8.2l0.4,10.3c0,0.4-0.1,1.9,0,3.4c0.1,3,0.6,5.1,2.3,5.8C191.5,123.4,193,123.8,194.4,122.4z M52.9,101.1c1.7-5.9,6-10.6,25.3-12.4c14.5-1.3,32-1.1,44.8-1.6c4.3-0.2,7.9-0.3,11-0.5c1.5-0.1,3.5-0.1,5.7-0.1c4,0,17.9,0.2,30.6,2.1c15.6,2.4,17.5,4.8,17.8,5.5l0,1.2c-0.1,0.5-0.3,0.9-0.6,1.3c-1.2,1.5-5.3,4.5-13.6,6.2c-18.5-8.8-57.5-5.4-82.1-4c-17,1-24.5,3.9-27.6,6.9c-7.4-0.8-10.4-2-11.3-3.2C52.6,102.3,52.6,102,52.9,101.1z M241.1,187.1c-1.2,9.8-13.3,19.5-33.2,26.7c-21.3,7.6-49.6,11.8-79.8,11.8c-44.2,0-91.5-2.4-107.5-20.1c-4.5-4.9-6.3-10.8-5.5-17.9c1-9.9,13.1-19.6,33.4-26.8c0.2,2.9,0.5,5.8,0.8,8.5c0,0.1,0,0.2,0,0.3c-8.6,3.8-12.4,9.6-11.2,17.3c1,6.3,4.2,15.2,21.3,20c13.6,3.8,34.1,5.2,44.6,5.2c1.3,0,2.4-1.1,2.4-2.4c0-1.3-1.1-2.4-2.4-2.4c-9.8,0-30.2-1.4-43.3-5c-16-4.5-17.3-12.6-17.8-16.1c-0.5-3.3-0.2-8,7.2-11.7c0.8,3.8,2.1,7,3.7,9.8c3.4,5.7,8.4,9.2,15,10.5c2.3,0.5,4.4,0.9,6.1,1.3c6.5,1.4,10.8,2.3,19.5,3.1c7.6,0.7,16.3,1,25.1,1c17.8,0,36-1.4,46-3.8c12.4-3,21.2-8,26.1-14.8c4.1-5.7,4.3-11.1,4.4-13.4c0-0.3,0-0.5,0-0.6l0-0.2c0.1-4.6,0.5-9.8,1-13c14.6,2.9,25.7,7,33.1,12C238.5,172.3,242,179,241.1,187.1z"/></g></g>
</svg>